# xmcd
#
# Track frame offsets: 
#        150
#        22836
#        43811
#        65854
#        87547
#        100044
#        120126
#        139103
#        162293
#        184760
#
# Disc length: 2722 seconds
#
# Revision: 0
# Processed by: cddbd v1.5PL3 Copyright (c) Steve Scherf et al.
# Submitted via: ExactAudioCopy v0.95a3
#
DISCID=7f0aa00a
DTITLE=沙宝亮 - 爱上一条鱼
DYEAR=2002
DGENRE=Pop
TTITLE0=被遗忘的人
TTITLE1=认领
TTITLE2=爱上一条鱼
TTITLE3=比痛更美丽
TTITLE4=我愿意为你
TTITLE5=我的秋天谁来过
TTITLE6=只因为爱
TTITLE7=等着你
TTITLE8=扫落叶的人
TTITLE9=青春日记
EXTD=
EXTT0=
EXTT1=
EXTT2=
EXTT3=
EXTT4=
EXTT5=
EXTT6=
EXTT7=
EXTT8=
EXTT9=
PLAYORDER=
